<?xml version="1.0" encoding="utf-8"?>
<!-- Generator: Adobe Illustrator 27.2.0, SVG Export Plug-In . SVG Version: 6.00 Build 0)  -->
<svg version="1.1" id="Camada_1" xmlns="http://www.w3.org/2000/svg" xmlns:xlink="http://www.w3.org/1999/xlink" x="0px" y="0px"
	 viewBox="0 0 4000 4000" style="enable-background:new 0 0 4000 4000;" xml:space="preserve">
<style type="text/css">
	.st0{fill:#0A3871;}
</style>
<g>
	<path class="st0" d="M1565.17,0c622.46,0,1244.92,0,1867.37,0c31.08,8.42,62.78,15.05,93.13,25.57
		c187.84,65.11,306.88,236.33,307.07,443.85c0.53,560.96,0.23,1121.92,0.17,1682.88c-0.02,136.66,2.58,273.4-1.28,409.96
		c-6.73,238.37-205.74,435.98-444.07,436.83c-592.25,2.12-1184.51,2.3-1776.76-0.11c-240.05-0.97-442.78-205.87-443.37-446.27
		c-1.7-701.52-1.67-1403.05,0.25-2104.57c0.4-144.85,64.84-262.47,178.53-353.12C1410.9,43.45,1487.18,20.11,1565.17,0z"/>
	<path class="st0" d="M565.07,4000c-78.39-19.51-154.48-43.94-219.08-95.5c-114.78-91.63-178.39-210.53-178.66-357.19
		c-1.41-753.74-1.37-1507.49-0.28-2261.24c0.35-244.06,198.33-444.69,442.45-451.15c101.06-2.67,202.26-0.44,307.15-0.44
		c0,19.11,0,34.41,0,49.7c0,549.36-0.34,1098.73,0.13,1648.09c0.3,352.57,236.13,638.82,582.29,705.58
		c48.16,9.29,98.29,11.58,147.51,11.67c489.53,0.82,979.06,0.5,1468.58,0.5c15.47,0,30.95,0,51.72,0c0,43.24,1.33,84.4-0.27,125.44
		c-3.54,90.74,4.13,184.3-15.58,271.55c-43.04,190.48-170.71,303.47-361.19,345.53c-7.33,1.62-14.29,4.94-21.42,7.47
		C2033.96,4000,1299.52,4000,565.07,4000z"/>
</g>
</svg>
