<?xml version="1.0" encoding="utf-8"?>
<svg version="1.1" id="Camada_1" xmlns="http://www.w3.org/2000/svg" xmlns:xlink="http://www.w3.org/1999/xlink" x="0px"
    y="0px" viewBox="0 0 4000 4000" style="enable-background:new 0 0 4000 4000;" xml:space="preserve">
    <style type="text/css">
        .st0 {
            fill: #0A3871;
        }
    </style>
    <g>
        <path class="st0" d="M2943.55,4000c-628.98,0-1257.96,0-1886.94,0c-3.29-1.93-6.36-4.9-9.9-5.63
		c-239.89-49.94-377.76-218.15-377.83-463.09c-0.24-865.52-0.1-1731.04-0.1-2596.57c0-13.89,0-27.78,0-41.83
		c890.01,0,1774.92,0,2662.58,0c0,18.75,0,34.2,0,49.64c0,484.17,0,968.34,0,1452.52c0,380.05,0.61,760.1-0.26,1140.15
		c-0.45,196.69-86.67,342.01-266.27,426.26C3026.75,3979.31,2984.1,3987.4,2943.55,4000z" />
        <path class="st0" d="M2561.48,0c56.41,58.75,114.55,115.96,168.56,176.84c31.21,35.18,65.15,46.59,111.81,46.06
		c219.57-2.5,439.19-1.11,658.79-1.11c15.38,0,30.75,0,48.87,0c0,148.42,0,293.41,0,441.37c-1032.07,0-2064.23,0-3099.01,0
		c0-145.15,0-290.35,0-441.36c14.98,0,30.06,0,45.13,0c229.99,0,459.99-0.39,689.98,0.52c26.67,0.11,46.2-6.77,64.95-26.35
		c54.87-57.29,111.82-112.58,167.59-169.01c7.87-7.96,13.73-17.92,20.53-26.95C1812.95,0,2187.21,0,2561.48,0z" />
    </g>
</svg>